{"title":"Father Brown S04E10 - The Wrath of Baron Samdi x264 RB58.mp4","uid":13227332,"size":500224799,"categoryP":"video","categoryS":"tv_shows","magnet":"?xt=urn:btih:5b29e53719101aa49b5445d90269bee4b093091a&amp;dn=Father+Brown+S04E10+-+The+Wrath+of+Baron+Samdi+x264+RB58.mp4&amp;tr=udp%3A%2F%2Ftracker.leechers-paradise.org%3A6969&amp;tr=udp%3A%2F%2Fzer0day.ch%3A1337&amp;tr=udp%3A%2F%2Fopen.demonii.com%3A1337&amp;tr=udp%3A%2F%2Ftracker.coppersurfer.tk%3A6969&amp;tr=udp%3A%2F%2Fexodus.desync.com%3A6969","seeders":1,"leechers":0,"uploader":"RedBaron58","files":1,"time":1452886013,"description":"Father Brown S04E10 - The Wrath of Baron Samdi x264 mp4\r\n \nhttp://www.imdb.com/title/tt2215842/\r\n\r\n\r\nPlease be patient My intial upload speed is limited.\r\nThank you for your kind comments and feedback on my other torrents, your feedback is welcome.\r\n\r\n\r\nAbout the Episode:\r\nBaron Samdi is the voodoo spirit of the dead that Emmanuel Jannite invokes when he follows \r\nhis love, Yveline Lafond, to Kembleford. \r\nLafond is working as lead singer in a Haitian jazz band. \r\nThe band leader in love with Lafond is found dead in a swimming pool poisoned, and Jannite dies \r\nfollowing a police chase.\r\n\r\nFifties-set crime drama, starring Mark Williams\r\n\r\n\r\nI hope you enjoy.\r\n\r\n\r\nTechnical:\r\n\r\nGeneral\r\nComplete name                            : G:Father Brown S04E10 - The Wrath of Baron Samdi x264 RB58.mp4\r\nFormat                                   : MPEG-4\r\nFormat profile                           : Base Media\r\nCodec ID                                 : isom\r\nFile size                                : 477 MiB\r\nDuration                                 : 43mn 37s\r\nOverall bit rate                         : 1 529 Kbps\r\nWriting application                      : Lavf54.63.104\r\n\r\nVideo\r\nID                                       : 1\r\nFormat                                   : AVC\r\nFormat/Info                              : Advanced Video Codec\r\nFormat profile                           :   \r\nFormat settings, CABAC                   : Yes\r\nFormat settings, ReFrames                : 4 frames\r\nCodec ID                                 : avc1\r\nCodec ID/Info                            : Advanced Video Coding\r\nDuration                                 : 43mn 37s\r\nBit rate                                 : 1 400 Kbps\r\nWidth                                    : 832 pixels\r\nHeight                                   : 468 pixels\r\nDisplay aspect ratio                     : 16:9\r\nFrame rate mode                          : Constant\r\nFrame rate                               : 25.000 fps\r\nColor space                              : YUV\r\nChroma subsampling                       : 4:2:0\r\nBit depth                                : 8 bits\r\nScan type                                : Progressive\r\nBits/(Pixel*Frame)                       : 0.144\r\nStream size                              : 437 MiB (92%)\r\nWriting library                          : x264 core 123 r2189 35cf912\r\nEncoding settings                        : cabac=1 / ref=3 / deblock=1:0:0\r\n\r\nAudio\r\nID                                       : 2\r\nFormat                                   : AAC\r\nFormat/Info                              : Advanced Audio Codec\r\nFormat profile                           : LC\r\nCodec ID                                 : 40\r\nDuration                                 : 43mn 37s\r\nBit rate mode                            : Constant\r\nBit rate                                 : 120 Kbps\r\nChannel(s)                               : 2 channels\r\nChannel positions                        : Front: L R\r\nSampling rate                            : 48.0 KHz\r\nCompression mode                         : Lossy\r\nStream size                              : 37.6 MiB (8%)","torrent":{"xt":"urn:btih:5b29e53719101aa49b5445d90269bee4b093091a","amp;dn":"Father+Brown+S04E10+-+The+Wrath+of+Baron+Samdi+x264+RB58.mp4","amp;tr":["udp%3A%2F%2Ftracker.leechers-paradise.org%3A6969","udp%3A%2F%2Fzer0day.ch%3A1337","udp%3A%2F%2Fopen.demonii.com%3A1337","udp%3A%2F%2Ftracker.coppersurfer.tk%3A6969","udp%3A%2F%2Fexodus.desync.com%3A6969"],"infoHash":"5b29e53719101aa49b5445d90269bee4b093091a","infoHashBuffer":{"type":"Buffer","data":[91,41,229,55,25,16,26,164,155,84,69,217,2,105,190,228,176,147,9,26]},"announce":[],"urlList":[]}}